# xmcd
#
# Track frame offsets: 
#        150
#        14109
#        30295
#        45891
#        63336
#        80707
#        98041
#        115251
#
# Disc length: 1640 seconds
#
# Revision: 0
# Processed by: cddbd v1.5.1PL2 Copyright (c) Steve Scherf et al.
# Submitted via: ExactAudioCopy v0.95b4
#
DISCID=5a066608
DTITLE=Willie Nelson - Willie Nelson Super Hits, Vol. 2
DYEAR=1900
DGENRE=Country
TTITLE0=Ain't Necessarily So
TTITLE1=Just Out Of Reach
TTITLE2=Mammas Don't Let Your Babies
TTITLE3=Stardust
TTITLE4=Without A Song
TTITLE5=Seven Spanish Angles
TTITLE6=Harbor Lights
TTITLE7=Remember Me
EXTD=
EXTT0=
EXTT1=
EXTT2=
EXTT3=
EXTT4=
EXTT5=
EXTT6=
EXTT7=
PLAYORDER=
